<svg width="18" height="20" viewBox="0 0 18 20" fill="none" xmlns="http://www.w3.org/2000/svg">
<path d="M3.25192 5.24506L3.502 5.10074V4.812L3.502 1C3.502 0.867392 3.55468 0.740215 3.64845 0.646447C3.74221 0.552678 3.86939 0.5 4.002 0.5L8.002 0.5C8.13461 0.5 8.26178 0.552678 8.35555 0.646446C8.44932 0.740215 8.502 0.867392 8.502 1V4.812V5.10071L8.75204 5.24504C9.5871 5.72705 10.2807 6.42016 10.7634 7.25484C11.2461 8.08952 11.5008 9.03644 11.502 10.0006L11.502 19C11.502 19.1326 11.4493 19.2598 11.3556 19.3536C11.2618 19.4473 11.1346 19.5 11.002 19.5H1.002C0.869391 19.5 0.742214 19.4473 0.648447 19.3536C0.554679 19.2598 0.502 19.1326 0.502 19L0.502 11.072H0.502193L0.501807 11.0581L0.501151 11.0345L0.502 11.0294V10.988L0.502 10.0003C0.503178 9.03619 0.757845 8.08936 1.24046 7.25476C1.72312 6.42007 2.41681 5.727 3.25192 5.24506ZM4.502 4V4.5H5.002H7.002H7.502V4L7.502 2V1.5H7.002L5.002 1.5L4.502 1.5V2L4.502 4ZM10.003 18.5H10.503V18L10.503 12V11.5H10.003L2.003 11.5H1.503L1.503 12L1.503 18V18.5H2.003H10.003ZM1.502 10L1.502 10.5H2.002L10.002 10.5H10.502V10C10.502 7.51786 8.48414 5.5 6.002 5.5C3.51986 5.5 1.502 7.51786 1.502 10ZM10.503 1.5H11.503V2.5H10.503V1.5ZM13.5 1.5L14.5 1.5V2.5H13.5V1.5ZM13.5 4.5L14.5 4.5V5.5L13.5 5.5V4.5ZM16.5 1.5L17.5 1.5V2.5H16.5V1.5ZM16.5 4.5H17.5V5.5H16.5V4.5ZM16.5 7.5H17.5V8.5L16.5 8.5V7.5Z" fill="#00A0E3" stroke="#00A0E3"/>
</svg>
