<svg width="42" height="42" viewBox="0 0 42 42" fill="none" xmlns="http://www.w3.org/2000/svg">
<rect width="42" height="42" rx="2" fill="#007CC1"/>
<path d="M18 31C18.5523 31 19 30.5523 19 30C19 29.4477 18.5523 29 18 29C17.4477 29 17 29.4477 17 30C17 30.5523 17.4477 31 18 31Z" stroke="white" stroke-width="2" stroke-linecap="round" stroke-linejoin="round"/>
<path d="M29 31C29.5523 31 30 30.5523 30 30C30 29.4477 29.5523 29 29 29C28.4477 29 28 29.4477 28 30C28 30.5523 28.4477 31 29 31Z" stroke="white" stroke-width="2" stroke-linecap="round" stroke-linejoin="round"/>
<path d="M10 10H14L16.68 23.39C16.7714 23.8504 17.0219 24.264 17.3875 24.5583C17.7532 24.8526 18.2107 25.009 18.68 25L28.4 25C28.8693 25.009 29.3268 24.8526 29.6925 24.5583C30.0581 24.264 30.3086 23.8504 30.4 23.39L32 15L15 15" stroke="white" stroke-width="2" stroke-linecap="round" stroke-linejoin="round"/>
</svg>
