<svg width="24" height="24" viewBox="0 0 24 24" fill="none" xmlns="http://www.w3.org/2000/svg">
<path d="M19.5003 13.572L12.0003 21L4.5003 13.572C4.00561 13.0906 3.61594 12.512 3.35585 11.8726C3.09575 11.2333 2.97086 10.5469 2.98904 9.85693C3.00721 9.16691 3.16806 8.48813 3.46146 7.86333C3.75485 7.23853 4.17444 6.68125 4.69379 6.22657C5.21314 5.7719 5.82101 5.42968 6.47911 5.22147C7.13722 5.01327 7.83131 4.94358 8.51767 5.0168C9.20403 5.09001 9.8678 5.30455 10.4672 5.6469C11.0666 5.98925 11.5885 6.45199 12.0003 7.00599C12.4138 6.45602 12.9364 5.99731 13.5354 5.6586C14.1344 5.31988 14.7968 5.10844 15.4812 5.03751C16.1657 4.96658 16.8574 5.03769 17.5131 5.24639C18.1688 5.45508 18.7743 5.79687 19.2919 6.25036C19.8094 6.70385 20.2277 7.25928 20.5207 7.88189C20.8137 8.50449 20.975 9.18088 20.9946 9.8687C21.0142 10.5565 20.8916 11.241 20.6344 11.8792C20.3773 12.5175 19.9912 13.0958 19.5003 13.578" stroke="#00A0E3" stroke-width="2" stroke-linecap="round" stroke-linejoin="round"/>
</svg>
