<svg width="21" height="19" viewBox="0 0 21 19" fill="none" xmlns="http://www.w3.org/2000/svg">
<path d="M18.5 10.5721L11 18.0001L3.5 10.5721C3.00531 10.0907 2.61565 9.51207 2.35555 8.87269C2.09546 8.23331 1.97057 7.54701 1.98874 6.85699C2.00692 6.16697 2.16777 5.48819 2.46116 4.86339C2.75456 4.23859 3.17414 3.68131 3.69349 3.22663C4.21284 2.77196 4.82071 2.42974 5.47881 2.22154C6.13692 2.01333 6.83101 1.94364 7.51737 2.01686C8.20373 2.09007 8.8675 2.30461 9.46688 2.64696C10.0663 2.98931 10.5883 3.45205 11 4.00605C11.4135 3.45608 11.9361 2.99738 12.5351 2.65866C13.1341 2.31994 13.7965 2.1085 14.4809 2.03757C15.1654 1.96665 15.8571 2.03775 16.5128 2.24645C17.1685 2.45514 17.774 2.79693 18.2916 3.25042C18.8091 3.70391 19.2274 4.25934 19.5204 4.88195C19.8134 5.50456 19.9747 6.18094 19.9943 6.86876C20.0139 7.55659 19.8913 8.24105 19.6341 8.8793C19.377 9.51756 18.9909 10.0959 18.5 10.5781" stroke="#333334" stroke-width="2" stroke-linecap="round" stroke-linejoin="round"/>
</svg>
