<svg width="16" height="16" viewBox="0 0 16 16" fill="none" xmlns="http://www.w3.org/2000/svg">
<g clip-path="url(#clip0_1474_3343)">
<path fill-rule="evenodd" clip-rule="evenodd" d="M8.98195 1.56595C8.88296 1.39352 8.74022 1.25025 8.56815 1.15062C8.39608 1.051 8.20078 0.998535 8.00195 0.998535C7.80312 0.998535 7.60781 1.051 7.43574 1.15062C7.26367 1.25025 7.12094 1.39352 7.02195 1.56595L0.164946 13.233C-0.292054 14.011 0.255946 15 1.14495 15H14.8579C15.7469 15 16.2959 14.01 15.8379 13.233L8.98195 1.56595ZM7.99995 4.99995C7.87355 5.00002 7.74858 5.02657 7.63307 5.07788C7.51756 5.12919 7.41408 5.20413 7.32929 5.29786C7.2445 5.3916 7.18029 5.50206 7.14079 5.62212C7.10129 5.74218 7.08738 5.86918 7.09995 5.99495L7.44995 9.50195C7.46171 9.63972 7.52474 9.76806 7.62659 9.86159C7.72844 9.95511 7.86167 10.007 7.99995 10.007C8.13822 10.007 8.27145 9.95511 8.3733 9.86159C8.47515 9.76806 8.53819 9.63972 8.54995 9.50195L8.89995 5.99495C8.91251 5.86918 8.8986 5.74218 8.8591 5.62212C8.8196 5.50206 8.75539 5.3916 8.6706 5.29786C8.58582 5.20413 8.48234 5.12919 8.36683 5.07788C8.25132 5.02657 8.12634 5.00002 7.99995 4.99995ZM8.00195 11C7.73673 11 7.48238 11.1053 7.29484 11.2928C7.1073 11.4804 7.00195 11.7347 7.00195 12C7.00195 12.2652 7.1073 12.5195 7.29484 12.7071C7.48238 12.8946 7.73673 13 8.00195 13C8.26716 13 8.52152 12.8946 8.70905 12.7071C8.89659 12.5195 9.00195 12.2652 9.00195 12C9.00195 11.7347 8.89659 11.4804 8.70905 11.2928C8.52152 11.1053 8.26716 11 8.00195 11Z" fill="#C80000"/>
</g>
<defs>
<clipPath id="clip0_1474_3343">
<rect width="16" height="16" fill="white"/>
</clipPath>
</defs>
</svg>
