<svg width="24" height="25" viewBox="0 0 24 25" fill="none" xmlns="http://www.w3.org/2000/svg">
<path d="M5.25 9.76685C6.49264 9.76685 7.5 8.75949 7.5 7.51685C7.5 6.2742 6.49264 5.26685 5.25 5.26685C4.00736 5.26685 3 6.2742 3 7.51685C3 8.75949 4.00736 9.76685 5.25 9.76685Z" fill="black"/>
<path d="M5.25 20.2668C6.49264 20.2668 7.5 19.2595 7.5 18.0168C7.5 16.7742 6.49264 15.7668 5.25 15.7668C4.00736 15.7668 3 16.7742 3 18.0168C3 19.2595 4.00736 20.2668 5.25 20.2668Z" fill="black"/>
<path d="M12 17.2668H22.5V18.7668H12V17.2668Z" fill="black"/>
<path d="M12 6.76685H22.5V8.26685H12V6.76685Z" fill="black"/>
</svg>
