<svg width="30" height="30" viewBox="0 0 30 30" fill="none" xmlns="http://www.w3.org/2000/svg">
<g clip-path="url(#clip0_1738_1548)">
<path fill-rule="evenodd" clip-rule="evenodd" d="M5.8125 21C5.89983 20.8836 6.01306 20.7891 6.14324 20.724C6.27341 20.6589 6.41696 20.625 6.5625 20.625H11.25C11.4986 20.625 11.7371 20.7238 11.9129 20.8996C12.0887 21.0754 12.1875 21.3139 12.1875 21.5625C12.1875 21.8111 12.0887 22.0496 11.9129 22.2254C11.7371 22.4012 11.4986 22.5 11.25 22.5H7.03125L2.8125 28.125H27.1875L22.9688 22.5H18.75C18.5014 22.5 18.2629 22.4012 18.0871 22.2254C17.9113 22.0496 17.8125 21.8111 17.8125 21.5625C17.8125 21.3139 17.9113 21.0754 18.0871 20.8996C18.2629 20.7238 18.5014 20.625 18.75 20.625H23.4375C23.583 20.625 23.7266 20.6589 23.8568 20.724C23.9869 20.7891 24.1002 20.8836 24.1875 21L29.8125 28.5C29.917 28.6393 29.9806 28.8049 29.9962 28.9783C30.0118 29.1517 29.9789 29.326 29.901 29.4818C29.8232 29.6375 29.7035 29.7685 29.5554 29.86C29.4073 29.9515 29.2366 30 29.0625 30H0.9375C0.763395 30 0.59273 29.9515 0.444628 29.86C0.296525 29.7685 0.176837 29.6375 0.098975 29.4818C0.0211129 29.326 -0.011847 29.1517 0.00378859 28.9783C0.0194242 28.8049 0.0830375 28.6393 0.1875 28.5L5.8125 21Z" fill="black"/>
<path fill-rule="evenodd" clip-rule="evenodd" d="M15 1.87498C14.2613 1.87498 13.5299 2.02047 12.8474 2.30315C12.165 2.58584 11.5449 3.00017 11.0225 3.5225C10.5002 4.04483 10.0859 4.66493 9.80318 5.34738C9.5205 6.02984 9.375 6.76129 9.375 7.49998C9.375 8.23866 9.5205 8.97011 9.80318 9.65257C10.0859 10.335 10.5002 10.9551 11.0225 11.4775C11.5449 11.9998 12.165 12.4141 12.8474 12.6968C13.5299 12.9795 14.2613 13.125 15 13.125C16.4918 13.125 17.9226 12.5323 18.9775 11.4775C20.0324 10.4226 20.625 8.99182 20.625 7.49998C20.625 6.00813 20.0324 4.57739 18.9775 3.5225C17.9226 2.46761 16.4918 1.87498 15 1.87498ZM7.5 7.49998C7.50014 6.05665 7.91673 4.64402 8.6998 3.43159C9.48287 2.21915 10.5992 1.25842 11.9147 0.664676C13.2302 0.0709292 14.6892 -0.130613 16.1164 0.0842327C17.5437 0.299078 18.8786 0.921186 19.961 1.87591C21.0435 2.83063 21.8275 4.07741 22.2189 5.46664C22.6104 6.85587 22.5926 8.32855 22.1678 9.70795C21.7431 11.0874 20.9293 12.3149 19.8242 13.2433C18.719 14.1717 17.3695 14.7614 15.9375 14.9419V25.3125C15.9375 25.5611 15.8387 25.7996 15.6629 25.9754C15.4871 26.1512 15.2486 26.25 15 26.25C14.7514 26.25 14.5129 26.1512 14.3371 25.9754C14.1613 25.7996 14.0625 25.5611 14.0625 25.3125V14.9437C12.2493 14.7153 10.5819 13.8327 9.37353 12.4617C8.16514 11.0907 7.49892 9.32563 7.5 7.4981V7.49998Z" fill="black"/>
</g>
<defs>
<clipPath id="clip0_1738_1548">
<rect width="30" height="30" fill="white"/>
</clipPath>
</defs>
</svg>
