<svg width="24" height="25" viewBox="0 0 24 25" fill="none" xmlns="http://www.w3.org/2000/svg">
<path d="M20.9949 7.66982C20.9788 7.50149 20.9202 7.34002 20.8245 7.20059C20.7288 7.06117 20.5992 6.94838 20.4479 6.87282L12.4749 2.87282C12.3362 2.80276 12.183 2.7661 12.0277 2.76575C11.8723 2.7654 11.7189 2.80138 11.5799 2.87082L3.55291 6.87082C3.25591 7.02082 3.05091 7.30782 3.00891 7.63782C2.99591 7.73482 1.86391 17.3788 11.5499 22.6458C11.6988 22.727 11.866 22.7688 12.0356 22.7673C12.2052 22.7657 12.3716 22.7208 12.5189 22.6368C21.8259 17.3778 21.0329 8.06382 20.9949 7.66982ZM12.0179 20.6138C5.15791 16.6038 4.87791 10.2618 4.95491 8.40882L12.0259 4.88582L19.0239 8.39682C19.0289 10.2668 18.5429 16.6398 12.0179 20.6138Z" fill="#333334"/>
</svg>
