<svg width="24" height="24" viewBox="0 0 24 24" fill="none" xmlns="http://www.w3.org/2000/svg">
<path d="M9.50563 5.82291L9.50641 5.8125C9.55371 5.18356 9.837 4.59573 10.2995 4.16687C10.7619 3.73804 11.3693 3.49984 12 3.5L9.50563 5.82291ZM9.50563 5.82291L9.50528 5.83334M9.50563 5.82291L9.50528 5.83334M9.50528 5.83334L9.50028 5.98334L9.5 5.99167M9.50528 5.83334L9.5 5.99167M9.5 5.99167V6M9.5 5.99167V6M9.5 6L9.5 13.3695L9.33369 13.5183C8.73753 14.0515 8.31488 14.7511 8.12033 15.5269C7.92578 16.3027 7.96826 17.1189 8.24228 17.8703C8.5163 18.6217 9.00927 19.2737 9.65756 19.7421C10.3058 20.2105 11.0797 20.4738 11.8791 20.498C12.6785 20.5223 13.4668 20.3063 14.1423 19.878C14.8177 19.4496 15.3493 18.8287 15.6683 18.0953C15.9873 17.3618 16.0791 16.5496 15.9318 15.7635C15.7846 14.9774 15.4051 14.2534 14.8423 13.6852L14.8367 13.6795M9.5 6L14.8367 13.6795M14.8367 13.6795L14.8309 13.6741M14.8367 13.6795L14.8309 13.6741M14.8309 13.6741L14.6779 13.5291L14.6728 13.5242M14.8309 13.6741L14.6728 13.5242M14.6728 13.5242L14.6674 13.5194M14.6728 13.5242L14.6674 13.5194M14.6674 13.5194L14.501 13.3704M14.6674 13.5194L14.501 13.3704M14.501 13.3704L14.5 6C14.5 5.99998 14.5 5.99996 14.5 5.99993C14.5 5.33692 14.2366 4.70106 13.7678 4.23223C13.299 3.76343 12.6631 3.50004 12.0002 3.5L14.501 13.3704ZM15.501 12.7281L15.501 12.9274L15.6382 13.072L15.6903 13.127C16.4154 13.9182 16.8656 14.9224 16.9739 15.9901L16.9935 16.2473L17 16.5061C16.9989 17.3065 16.8057 18.095 16.4366 18.8053C16.0664 19.5174 15.5304 20.13 14.8736 20.5912C14.2168 21.0524 13.4587 21.3488 12.6633 21.4553C11.8678 21.5617 11.0584 21.4751 10.3035 21.2028C9.54858 20.9305 8.87029 20.4805 8.32595 19.8908C7.78161 19.3011 7.38722 18.589 7.1761 17.8147C6.96499 17.0405 6.94335 16.2268 7.11302 15.4424C7.28225 14.66 7.63684 13.9297 8.14694 13.3129L8.31496 13.1205L8.36198 13.0709L8.49897 12.9263L8.499 12.7271L8.5 6.00007L8.5 5.99996C8.49992 5.1327 8.82184 4.29629 9.40334 3.65287C9.98338 3.01107 10.7805 2.60688 11.6408 2.51812L11.8247 2.50454L12.006 2.50001C12.9018 2.50155 13.763 2.84652 14.4122 3.46401C15.0614 4.0815 15.449 4.92437 15.4953 5.81896L15.5 6.00628L15.501 12.7281ZM12.5 14.208V14.5353L12.8 14.6663C13.2211 14.85 13.5661 15.1732 13.777 15.5815C13.9878 15.9897 14.0517 16.4581 13.9578 16.9079C13.8639 17.3577 13.6181 17.7614 13.2615 18.0513C12.9049 18.3411 12.4595 18.4993 12 18.4993C11.5405 18.4993 11.0951 18.3411 10.7385 18.0513C10.382 17.7614 10.1361 17.3577 10.0422 16.9079C9.94831 16.4581 10.0122 15.9897 10.223 15.5815C10.4339 15.1732 10.7789 14.85 11.2 14.6663L11.5 14.5353V14.208L11.5 9C11.5 8.86739 11.5527 8.74022 11.6464 8.64645C11.7402 8.55268 11.8674 8.5 12 8.5C12.1326 8.5 12.2598 8.55268 12.3536 8.64645C12.4473 8.74022 12.5 8.86739 12.5 9L12.5 14.208Z" fill="#00A0E3" stroke="#00A0E3"/>
</svg>
