<svg width="32" height="32" viewBox="0 0 32 32" fill="none" xmlns="http://www.w3.org/2000/svg">
<circle cx="16" cy="16" r="16" fill="white"/>
<path d="M27.643 8.93708C26.808 9.30708 25.911 9.55708 24.968 9.67008C25.941 9.08787 26.669 8.17154 27.016 7.09208C26.1019 7.63507 25.1014 8.01727 24.058 8.22208C23.3564 7.47294 22.4271 6.9764 21.4143 6.80955C20.4016 6.6427 19.3621 6.81487 18.4572 7.29933C17.5524 7.78379 16.8328 8.55344 16.4102 9.48878C15.9875 10.4241 15.8855 11.4728 16.12 12.4721C14.2677 12.3791 12.4556 11.8976 10.8014 11.059C9.14723 10.2203 7.68785 9.04324 6.51801 7.60408C6.11801 8.29408 5.88801 9.09408 5.88801 9.94608C5.88757 10.7131 6.07644 11.4683 6.43789 12.1448C6.79934 12.8213 7.32217 13.3981 7.96001 13.8241C7.22029 13.8005 6.49688 13.6007 5.85001 13.2411V13.3011C5.84994 14.3768 6.22204 15.4195 6.90319 16.2521C7.58434 17.0847 8.53258 17.656 9.58701 17.8691C8.9008 18.0548 8.18135 18.0821 7.48301 17.9491C7.78051 18.8747 8.36001 19.6841 9.14038 20.264C9.92075 20.8439 10.8629 21.1653 11.835 21.1831C10.1848 22.4785 8.1469 23.1812 6.04901 23.1781C5.67739 23.1782 5.30609 23.1565 4.93701 23.1131C7.06649 24.4823 9.54535 25.2089 12.077 25.2061C20.647 25.2061 25.332 18.1081 25.332 11.9521C25.332 11.7521 25.327 11.5501 25.318 11.3501C26.2293 10.6911 27.0159 9.87497 27.641 8.94008L27.643 8.93708Z" fill="black"/>
</svg>
