<svg width="32" height="32" viewBox="0 0 32 32" fill="none" xmlns="http://www.w3.org/2000/svg">
<circle cx="16" cy="16" r="16" fill="white"/>
<g clip-path="url(#clip0_41_458)">
<path fill-rule="evenodd" clip-rule="evenodd" d="M27.45 9.948C27.616 9.402 27.45 9 26.655 9H24.03C23.362 9 23.054 9.347 22.887 9.73C22.887 9.73 21.552 12.926 19.661 15.002C19.049 15.604 18.771 15.795 18.437 15.795C18.27 15.795 18.019 15.604 18.019 15.057V9.948C18.019 9.292 17.835 9 17.279 9H13.151C12.734 9 12.483 9.304 12.483 9.593C12.483 10.214 13.429 10.358 13.526 12.106V15.904C13.526 16.737 13.373 16.888 13.039 16.888C12.149 16.888 9.984 13.677 8.699 10.003C8.45 9.288 8.198 9 7.527 9H4.9C4.15 9 4 9.347 4 9.73C4 10.412 4.89 13.8 8.145 18.281C10.315 21.341 13.37 23 16.153 23C17.822 23 18.028 22.632 18.028 21.997V19.684C18.028 18.947 18.186 18.8 18.715 18.8C19.105 18.8 19.772 18.992 21.33 20.467C23.11 22.216 23.403 23 24.405 23H27.03C27.78 23 28.156 22.632 27.94 21.904C27.702 21.18 26.852 20.129 25.725 18.882C25.113 18.172 24.195 17.407 23.916 17.024C23.527 16.533 23.638 16.314 23.916 15.877C23.916 15.877 27.116 11.451 27.449 9.948H27.45Z" fill="black"/>
</g>
<defs>
<clipPath id="clip0_41_458">
<rect width="24" height="24" fill="white" transform="translate(4 4)"/>
</clipPath>
</defs>
</svg>
