<svg width="22" height="20" viewBox="0 0 22 20" fill="none" xmlns="http://www.w3.org/2000/svg">
<path d="M15 6.5C16.333 8.278 16.333 11.722 15 13.5M18 3C21.988 6.808 22.012 13.217 18 17M1 12.959L1 7.04C1 6.466 1.448 6 2 6L5.586 6C5.71833 5.99953 5.8492 5.97226 5.97071 5.91984C6.09222 5.86742 6.20185 5.79094 6.293 5.695L9.293 2.307C9.923 1.651 11 2.116 11 3.043L11 16.957C11 17.891 9.91 18.352 9.284 17.683L6.294 14.314C6.20259 14.2153 6.09185 14.1365 5.96867 14.0825C5.84549 14.0285 5.71251 14.0004 5.578 14H2C1.448 14 1 13.534 1 12.959Z" stroke="#00A0E3" stroke-width="2" stroke-linecap="round" stroke-linejoin="round"/>
</svg>
